<svg
  height="32"
  width="32"
  version="1.1"
  viewBox="0 0 32 32"
  xmlns="http://www.w3.org/2000/svg"
  x="0px"
  y="0px"
  xmlSpace="preserve"
>
  <g fill="#e8be13">
    <path
      d="M27,13h-9.743l2.718-11.775c0.104-0.453-0.116-0.917-0.533-1.122c-0.417-0.206-0.919-0.097-1.214,0.261 l-14,17c-0.246,0.299-0.297,0.712-0.132,1.062S4.613,19,5,19h9.743l-2.718,11.775c-0.104,0.453,0.116,0.917,0.533,1.122 C12.699,31.966,12.85,32,13,32c0.292,0,0.578-0.127,0.772-0.364l14-17c0.246-0.299,0.297-0.712,0.132-1.062S27.387,13,27,13z"
      fill="#e8be13"
    />
  </g>
</svg>