<svg width="93" height="32" viewBox="0 0 93 32" fill="none" xmlns="http://www.w3.org/2000/svg">
<path d="M7.5 9.01V8.98L16.17 9.01V10.39H8.88V28H7.5V10.39H0.21V9.01H7.5ZM18.4664 8.98H34.4564V10.36H19.8464V17.77H34.4564V19.18H19.8464V26.62H34.4564V28H18.4664V8.98ZM56.8205 9.01V26.62H71.4005V28H55.4405V9.01H56.8205ZM76.0969 11.35C77.6569 9.77 79.5369 8.98 81.7369 8.98C83.9369 8.98 85.8169 9.77 87.3769 11.35C88.9369 12.91 89.7169 14.79 89.7169 16.99V28H88.3369V21.43H75.1369V28H73.7569V16.99C73.7569 14.79 74.5369 12.91 76.0969 11.35ZM88.3369 20.05V16.99C88.3369 15.17 87.6869 13.62 86.3869 12.34C85.1069 11.04 83.5569 10.39 81.7369 10.39C79.9169 10.39 78.3569 11.04 77.0569 12.34C75.7769 13.62 75.1369 15.17 75.1369 16.99V20.05H88.3369Z" fill="white"/>
<path d="M52.9375 15.9167H45.9887L46.8094 8.87917C46.8313 8.69167 46.718 8.51334 46.5334 8.44501C46.3483 8.37584 46.1388 8.43501 46.0215 8.58751L37.709 19.4208C37.6119 19.5475 37.5979 19.7154 37.6723 19.855C37.7471 19.9954 37.898 20.0833 38.0625 20.0833H45.0113L44.1906 27.1208C44.1687 27.3083 44.282 27.4867 44.4666 27.555C44.5183 27.5742 44.5716 27.5833 44.625 27.5833C44.7615 27.5833 44.8941 27.5225 44.9785 27.4125L53.291 16.5792C53.3881 16.4525 53.4021 16.2846 53.3278 16.145C53.2529 16.0046 53.102 15.9167 52.9375 15.9167Z" fill="#FEED6B"/>
</svg>
